<svg width="220" height="246" viewBox="0 0 220 246" fill="none" xmlns="http://www.w3.org/2000/svg">
<path d="M209.5 45.7031V111.818C209.5 173.117 167 230.391 110 244.454C52.9996 230.391 10.5001 173.117 10.5 111.818V45.7031L110 1.63965L209.5 45.7031Z" fill="#462A02" stroke="#A45108" stroke-width="3"/>
<path d="M77.8157 60L143.849 126.103L155.613 114.326L163.437 122.159L149.731 135.879L167.377 153.543C169.541 155.71 169.541 159.209 167.377 161.376L163.437 165.32C161.273 167.486 157.777 167.486 155.613 165.32L137.745 147.711L124.206 161.431L116.381 153.599L128.145 141.823L62.1119 75.7202V60H77.8157ZM131.586 101.995L157.888 75.6646V60H142.184L115.882 86.3299L131.586 101.995ZM104.118 129.769L88.4143 113.826L76.151 126.103L64.387 114.326L56.5629 122.159L70.269 135.879L52.6231 153.599C50.459 155.765 50.459 159.265 52.6231 161.431L56.5629 165.375C58.727 167.542 62.2229 167.542 64.387 165.375L82.2549 147.711L95.7945 161.431L103.619 153.599L91.8547 141.823L104.118 129.769Z" fill="#A45108"/>
<g clip-path="url(#clip0_439_1763)">
<rect y="196" width="220" height="50" rx="20" fill="#AE6600"/>
<path d="M46.0104 210.624L43.5144 210.208V208.224H48.2824C49.0077 208.224 49.9464 208.181 51.0984 208.096C51.3757 208.075 51.7064 208.053 52.0904 208.032C52.4744 208.011 52.9224 208 53.4344 208C56.6557 208 58.9064 208.459 60.1864 209.376C61.4877 210.272 62.1384 211.616 62.1384 213.408C62.1384 214.987 61.6584 216.309 60.6984 217.376C59.7597 218.421 58.5224 219.061 56.9864 219.296C59.0984 219.275 60.7517 219.755 61.9464 220.736C63.1624 221.717 63.7704 223.083 63.7704 224.832C63.7704 227.051 62.9917 228.832 61.4344 230.176C59.877 231.52 57.2744 232.192 53.6264 232.192C52.6664 232.192 51.781 232.16 50.9704 232.096C50.757 232.096 50.3944 232.075 49.8824 232.032C49.3704 232.011 48.8477 232 48.3144 232H43.4824V230.08L46.0104 229.76V210.624ZM50.6504 218.592C50.885 218.613 51.365 218.624 52.0904 218.624H53.5944C54.8957 218.624 55.8664 218.219 56.5064 217.408C57.1464 216.597 57.4664 215.456 57.4664 213.984C57.4664 212.576 57.1357 211.552 56.4744 210.912C55.813 210.272 54.7144 209.952 53.1784 209.952C52.773 209.952 51.9304 209.995 50.6504 210.08V218.592ZM50.6504 229.888C51.141 230.08 52.0797 230.176 53.4664 230.176C55.2797 230.176 56.5917 229.749 57.4024 228.896C58.213 228.043 58.6184 226.805 58.6184 225.184C58.6184 223.627 58.245 222.517 57.4984 221.856C56.773 221.173 55.6104 220.832 54.0104 220.832C52.2184 220.832 51.0984 220.853 50.6504 220.896V229.888ZM66.0449 230.08L68.5729 229.76V210.624L66.1729 210.176V208.224H70.8129C71.2182 208.224 71.6662 208.213 72.1569 208.192C72.6475 208.171 73.0209 208.149 73.2769 208.128C74.3862 208.043 75.3035 208 76.0289 208C78.2262 208 79.9862 208.224 81.3089 208.672C82.6315 209.12 83.5915 209.803 84.1889 210.72C84.7862 211.637 85.0849 212.843 85.0849 214.336C85.0849 215.808 84.6902 217.173 83.9009 218.432C83.1115 219.691 81.9702 220.555 80.4769 221.024C81.3302 221.387 82.0875 222.048 82.7489 223.008C83.4102 223.968 84.1142 225.216 84.8609 226.752C85.3942 227.797 85.7995 228.555 86.0769 229.024C86.3755 229.472 86.6635 229.728 86.9409 229.792L87.9969 230.112V232H82.5569C82.2155 232 81.8529 231.659 81.4689 230.976C81.1062 230.272 80.6262 229.173 80.0289 227.68C79.3249 225.931 78.7169 224.565 78.2049 223.584C77.6929 222.603 77.1489 221.995 76.5729 221.76H73.2769V229.76L76.2209 230.08V232H66.0449V230.08ZM76.2209 219.808C77.4369 219.808 78.3862 219.371 79.0689 218.496C79.7515 217.621 80.0929 216.309 80.0929 214.56C80.0929 213.003 79.7515 211.851 79.0689 211.104C78.4075 210.357 77.2555 209.984 75.6129 209.984C75.0155 209.984 74.5035 210.016 74.0769 210.08C73.6715 210.123 73.4049 210.144 73.2769 210.144V219.744C73.5329 219.787 74.1515 219.808 75.1329 219.808H76.2209ZM99.2194 232.352C95.742 232.352 93.1394 231.264 91.4114 229.088C89.6834 226.912 88.8194 223.947 88.8194 220.192C88.8194 217.739 89.2674 215.584 90.1634 213.728C91.0807 211.872 92.3607 210.443 94.0034 209.44C95.646 208.437 97.534 207.936 99.6674 207.936C103.187 207.936 105.822 208.981 107.571 211.072C109.342 213.141 110.227 216.043 110.227 219.776C110.227 222.251 109.758 224.448 108.819 226.368C107.902 228.267 106.611 229.739 104.947 230.784C103.283 231.829 101.374 232.352 99.2194 232.352ZM99.5394 209.888C97.79 209.888 96.4247 210.752 95.4434 212.48C94.462 214.208 93.9714 216.768 93.9714 220.16C93.9714 223.509 94.4407 226.059 95.3794 227.808C96.3394 229.536 97.7047 230.4 99.4754 230.4C101.203 230.4 102.558 229.493 103.539 227.68C104.521 225.845 105.011 223.211 105.011 219.776C105.011 216.448 104.542 213.973 103.603 212.352C102.665 210.709 101.31 209.888 99.5394 209.888ZM114.949 210.624L112.421 210.208V208.224H119.685L129.221 222.624L131.013 226.272V210.624L128.261 210.208V208.224H136.197V210.208L133.733 210.624V232H129.861L119.909 216.864L117.669 212.64V229.76L120.901 230.08V232H112.421V230.08L114.949 229.76V210.624ZM151.26 210.016L142.94 210.464L141.212 214.784L138.844 214.464L139.58 208.16H155.804L156.572 209.856L144.988 227.84L142.78 230.048L152.636 229.408L154.428 224.448L156.86 224.928L156.124 232H138.524L137.532 230.304L149.372 212.224L151.26 210.016ZM161.573 210.624L159.013 210.208V208.224H176.069L176.485 213.6H174.245L173.189 210.432L166.277 210.144V218.752L170.725 218.656L171.237 216.032H173.285V223.776H171.237L170.725 221.024L166.277 220.928V229.952L174.021 229.568L175.877 225.472L178.277 226.144L177.445 232H159.045V230.08L161.573 229.76V210.624Z" fill="white"/>
</g>
<rect x="0.5" y="196.5" width="219" height="49" rx="19.5" stroke="#A45108"/>
<defs>
<clipPath id="clip0_439_1763">
<rect y="196" width="220" height="50" rx="20" fill="white"/>
</clipPath>
</defs>
</svg>
