<svg width="220" height="246" viewBox="0 0 220 246" fill="none" xmlns="http://www.w3.org/2000/svg">
<path d="M209.5 45.7031V111.818C209.5 173.117 167 230.391 110 244.454C52.9996 230.391 10.5001 173.117 10.5 111.818V45.7031L110 1.63965L209.5 45.7031Z" fill="#002E83" stroke="#4284FF" stroke-width="3"/>
<path d="M77.8157 60L143.849 126.103L155.613 114.326L163.437 122.159L149.731 135.879L167.377 153.543C169.541 155.71 169.541 159.209 167.377 161.376L163.437 165.32C161.273 167.486 157.777 167.486 155.613 165.32L137.745 147.711L124.206 161.431L116.381 153.599L128.145 141.823L62.1119 75.7202V60H77.8157ZM131.586 101.995L157.888 75.6646V60H142.184L115.882 86.3299L131.586 101.995ZM104.118 129.769L88.4143 113.826L76.151 126.103L64.387 114.326L56.5629 122.159L70.269 135.879L52.6231 153.599C50.459 155.765 50.459 159.265 52.6231 161.431L56.5629 165.375C58.727 167.542 62.2229 167.542 64.387 165.375L82.2549 147.711L95.7945 161.431L103.619 153.599L91.8547 141.823L104.118 129.769Z" fill="#4284FF"/>
<g clip-path="url(#clip0_439_1793)">
<rect y="196" width="220" height="50" rx="20" fill="#0046C7"/>
<path d="M31.3698 210.624L28.9698 210.208V208.224H33.6418C34.3458 208.224 35.2951 208.181 36.4898 208.096C36.7671 208.075 37.1831 208.053 37.7378 208.032C38.3138 208.011 38.8258 208 39.2738 208C43.1991 208 46.1324 208.981 48.0738 210.944C50.0364 212.907 51.0178 215.691 51.0178 219.296C51.0178 221.813 50.5271 224.053 49.5458 226.016C48.5858 227.979 47.2098 229.515 45.4178 230.624C43.6258 231.712 41.5351 232.256 39.1458 232.256C38.5271 232.256 37.5564 232.213 36.2338 232.128C34.9964 232.043 34.1538 232 33.7058 232H28.8418V230.08L31.3698 229.76V210.624ZM36.0098 229.856C36.7351 230.048 37.7484 230.144 39.0498 230.144C41.1831 230.101 42.8578 229.248 44.0738 227.584C45.2898 225.899 45.8978 223.381 45.8978 220.032C45.8978 216.853 45.3004 214.4 44.1058 212.672C42.9111 210.923 41.0551 210.048 38.5378 210.048C38.0044 210.048 37.4924 210.08 37.0017 210.144C36.5324 210.208 36.2018 210.251 36.0098 210.272V229.856ZM56.1295 210.624L53.4095 210.208V208.224H63.6495V210.208L60.8335 210.624V229.76L63.6495 230.112V232H53.4095V230.08L56.1295 229.76V210.624ZM73.8298 208.096H78.7258L86.1178 229.76L87.9738 230.08V232H78.5338V230.08L80.9338 229.76L79.6858 225.6H71.3978L70.1498 229.792L72.7418 230.08V232H64.5817L64.5497 230.08L66.4698 229.76L73.8298 208.096ZM76.0378 213.504L75.4618 211.008L74.8538 213.536L72.0058 223.36H79.0458L76.0378 213.504ZM92.6825 210.624L89.2265 210.208V208.224H99.2105L103.019 221.984L103.915 225.728L104.683 221.984L108.459 208.224H118.347V210.208L114.859 210.624L117.419 229.728L120.011 230.08V232H109.803V230.08L112.619 229.76L111.211 215.744L110.603 209.888L109.419 214.816L104.779 231.008H101.387L96.6505 215.648L95.0185 209.888L94.5385 215.744L93.3225 229.76L96.5545 230.08V232H87.6585V230.08L90.3465 229.76L92.6825 210.624ZM131.454 232.352C127.976 232.352 125.374 231.264 123.646 229.088C121.918 226.912 121.054 223.947 121.054 220.192C121.054 217.739 121.502 215.584 122.398 213.728C123.315 211.872 124.595 210.443 126.238 209.44C127.88 208.437 129.768 207.936 131.902 207.936C135.422 207.936 138.056 208.981 139.806 211.072C141.576 213.141 142.462 216.043 142.462 219.776C142.462 222.251 141.992 224.448 141.054 226.368C140.136 228.267 138.846 229.739 137.182 230.784C135.518 231.829 133.608 232.352 131.454 232.352ZM131.774 209.888C130.024 209.888 128.659 210.752 127.678 212.48C126.696 214.208 126.206 216.768 126.206 220.16C126.206 223.509 126.675 226.059 127.614 227.808C128.574 229.536 129.939 230.4 131.71 230.4C133.438 230.4 134.792 229.493 135.774 227.68C136.755 225.845 137.246 223.211 137.246 219.776C137.246 216.448 136.776 213.973 135.838 212.352C134.899 210.709 133.544 209.888 131.774 209.888ZM147.183 210.624L144.655 210.208V208.224H151.919L161.455 222.624L163.247 226.272V210.624L160.495 210.208V208.224H168.431V210.208L165.967 210.624V232H162.095L152.143 216.864L149.903 212.64V229.76L153.135 230.08V232H144.655V230.08L147.183 229.76V210.624ZM172.839 210.624L170.439 210.208V208.224H175.111C175.815 208.224 176.764 208.181 177.959 208.096C178.236 208.075 178.652 208.053 179.207 208.032C179.783 208.011 180.295 208 180.743 208C184.668 208 187.601 208.981 189.543 210.944C191.505 212.907 192.487 215.691 192.487 219.296C192.487 221.813 191.996 224.053 191.015 226.016C190.055 227.979 188.679 229.515 186.887 230.624C185.095 231.712 183.004 232.256 180.615 232.256C179.996 232.256 179.025 232.213 177.703 232.128C176.465 232.043 175.623 232 175.175 232H170.311V230.08L172.839 229.76V210.624ZM177.479 229.856C178.204 230.048 179.217 230.144 180.519 230.144C182.652 230.101 184.327 229.248 185.543 227.584C186.759 225.899 187.367 223.381 187.367 220.032C187.367 216.853 186.769 214.4 185.575 212.672C184.38 210.923 182.524 210.048 180.007 210.048C179.473 210.048 178.961 210.08 178.47 210.144C178.001 210.208 177.671 210.251 177.479 210.272V229.856Z" fill="white"/>
</g>
<rect x="0.5" y="196.5" width="219" height="49" rx="19.5" stroke="#4284FF"/>
<defs>
<clipPath id="clip0_439_1793">
<rect y="196" width="220" height="50" rx="20" fill="white"/>
</clipPath>
</defs>
</svg>
