<svg width="220" height="246" viewBox="0 0 220 246" fill="none" xmlns="http://www.w3.org/2000/svg">
<path d="M209.5 45.7031V111.818C209.5 173.117 167 230.391 110 244.454C52.9996 230.391 10.5001 173.117 10.5 111.818V45.7031L110 1.63965L209.5 45.7031Z" fill="#777300" stroke="#FFF700" stroke-width="3"/>
<path d="M77.8157 60L143.849 126.103L155.613 114.326L163.437 122.159L149.731 135.879L167.377 153.543C169.541 155.71 169.541 159.209 167.377 161.376L163.437 165.32C161.273 167.486 157.777 167.486 155.613 165.32L137.745 147.711L124.206 161.431L116.381 153.599L128.145 141.823L62.1119 75.7202V60H77.8157ZM131.586 101.995L157.888 75.6646V60H142.184L115.882 86.3299L131.586 101.995ZM104.118 129.769L88.4143 113.826L76.151 126.103L64.387 114.326L56.5629 122.159L70.269 135.879L52.6231 153.599C50.459 155.765 50.459 159.265 52.6231 161.431L56.5629 165.375C58.727 167.542 62.2229 167.542 64.387 165.375L82.2549 147.711L95.7945 161.431L103.619 153.599L91.8547 141.823L104.118 129.769Z" fill="#FFF700"/>
<g clip-path="url(#clip0_350_1368)">
<rect y="196" width="220" height="50" rx="20" fill="#AEA800"/>
<path d="M76.9301 232.352C74.5835 232.352 72.5568 231.84 70.8501 230.816C69.1648 229.771 67.8848 228.341 67.0101 226.528C66.1355 224.715 65.6981 222.667 65.6981 220.384C65.6981 217.76 66.1995 215.509 67.2021 213.632C68.2261 211.755 69.6661 210.336 71.5221 209.376C73.3781 208.416 75.5435 207.936 78.0181 207.936C80.3435 207.936 82.9568 208.267 85.8581 208.928L85.5061 214.88H82.2741L81.4101 210.784C81.1968 210.571 80.7915 210.379 80.1941 210.208C79.5968 210.016 78.8181 209.92 77.8581 209.92C75.7675 209.92 74.1248 210.773 72.9301 212.48C71.7355 214.165 71.1381 216.608 71.1381 219.808C71.1381 222.944 71.6501 225.483 72.6741 227.424C73.6981 229.344 75.2555 230.304 77.3461 230.304C78.1995 230.304 78.9995 230.197 79.7461 229.984C80.4928 229.771 81.0581 229.493 81.4421 229.152V222.272L78.0501 221.952V219.808H87.7781V221.952L86.0821 222.24V230.72C85.6341 230.741 84.8235 230.923 83.6501 231.264C82.2848 231.627 81.1115 231.893 80.1301 232.064C79.1701 232.256 78.1035 232.352 76.9301 232.352ZM99.7506 232.352C96.2733 232.352 93.6706 231.264 91.9426 229.088C90.2146 226.912 89.3506 223.947 89.3506 220.192C89.3506 217.739 89.7986 215.584 90.6946 213.728C91.612 211.872 92.892 210.443 94.5346 209.44C96.1773 208.437 98.0653 207.936 100.199 207.936C103.719 207.936 106.353 208.981 108.103 211.072C109.873 213.141 110.759 216.043 110.759 219.776C110.759 222.251 110.289 224.448 109.351 226.368C108.433 228.267 107.143 229.739 105.479 230.784C103.815 231.829 101.905 232.352 99.7506 232.352ZM100.071 209.888C98.3213 209.888 96.956 210.752 95.9746 212.48C94.9933 214.208 94.5026 216.768 94.5026 220.16C94.5026 223.509 94.972 226.059 95.9106 227.808C96.8706 229.536 98.236 230.4 100.007 230.4C101.735 230.4 103.089 229.493 104.071 227.68C105.052 225.845 105.543 223.211 105.543 219.776C105.543 216.448 105.073 213.973 104.135 212.352C103.196 210.709 101.841 209.888 100.071 209.888ZM115.48 210.624L113.016 210.208V208.224H123.256V210.208L120.184 210.624V229.728L127.032 229.44L129.048 223.456L131.64 223.808L130.648 232H112.952V230.08L115.48 229.76V210.624ZM135.854 210.624L133.454 210.208V208.224H138.126C138.83 208.224 139.779 208.181 140.974 208.096C141.251 208.075 141.667 208.053 142.222 208.032C142.798 208.011 143.31 208 143.758 208C147.683 208 150.617 208.981 152.558 210.944C154.521 212.907 155.502 215.691 155.502 219.296C155.502 221.813 155.011 224.053 154.03 226.016C153.07 227.979 151.694 229.515 149.902 230.624C148.11 231.712 146.019 232.256 143.63 232.256C143.011 232.256 142.041 232.213 140.718 232.128C139.481 232.043 138.638 232 138.19 232H133.326V230.08L135.854 229.76V210.624ZM140.494 229.856C141.219 230.048 142.233 230.144 143.534 230.144C145.667 230.101 147.342 229.248 148.558 227.584C149.774 225.899 150.382 223.381 150.382 220.032C150.382 216.853 149.785 214.4 148.59 212.672C147.395 210.923 145.539 210.048 143.022 210.048C142.489 210.048 141.977 210.08 141.486 210.144C141.017 210.208 140.686 210.251 140.494 210.272V229.856Z" fill="white"/>
</g>
<rect x="0.5" y="196.5" width="219" height="49" rx="19.5" stroke="#FFF700"/>
<defs>
<clipPath id="clip0_350_1368">
<rect y="196" width="220" height="50" rx="20" fill="white"/>
</clipPath>
</defs>
</svg>
