<svg width="220" height="246" viewBox="0 0 220 246" fill="none" xmlns="http://www.w3.org/2000/svg">
<path d="M209.5 45.7031V111.818C209.5 173.117 167 230.391 110 244.454C52.9996 230.391 10.5001 173.117 10.5 111.818V45.7031L110 1.63965L209.5 45.7031Z" fill="#00796D" stroke="#00FFE6" stroke-width="3"/>
<path d="M77.8157 60L143.849 126.103L155.613 114.326L163.437 122.159L149.731 135.879L167.377 153.543C169.541 155.71 169.541 159.209 167.377 161.376L163.437 165.32C161.273 167.486 157.777 167.486 155.613 165.32L137.745 147.711L124.206 161.431L116.381 153.599L128.145 141.823L62.1119 75.7202V60H77.8157ZM131.586 101.995L157.888 75.6646V60H142.184L115.882 86.3299L131.586 101.995ZM104.118 129.769L88.4143 113.826L76.151 126.103L64.387 114.326L56.5629 122.159L70.269 135.879L52.6231 153.599C50.459 155.765 50.459 159.265 52.6231 161.431L56.5629 165.375C58.727 167.542 62.2229 167.542 64.387 165.375L82.2549 147.711L95.7945 161.431L103.619 153.599L91.8547 141.823L104.118 129.769Z" fill="#00FFE6"/>
<g clip-path="url(#clip0_439_1781)">
<rect y="196" width="220" height="50" rx="20" fill="#00AD9C"/>
<path d="M23.3236 210.624L20.9236 210.208V208.224H25.7556C26.2036 208.224 26.897 208.203 27.8356 208.16C29.073 208.075 30.193 208.032 31.1956 208.032C33.4143 208.032 35.1636 208.309 36.4436 208.864C37.745 209.397 38.6623 210.176 39.1956 211.2C39.7503 212.203 40.0276 213.483 40.0276 215.04C40.0276 217.728 39.185 219.819 37.4996 221.312C35.8356 222.805 33.521 223.552 30.5556 223.552C29.3823 223.552 28.5396 223.52 28.0276 223.456V229.76L32.3156 230.08V232H20.7956V230.08L23.3236 229.76V210.624ZM27.9956 221.408C28.4863 221.515 29.3183 221.568 30.4916 221.568C31.921 221.568 33.0623 221.077 33.9156 220.096C34.7903 219.093 35.2276 217.44 35.2276 215.136C35.2276 213.344 34.833 212.043 34.0436 211.232C33.2756 210.4 32.0916 209.984 30.4916 209.984C29.8943 209.984 29.2756 210.027 28.6356 210.112C28.337 210.155 28.1236 210.176 27.9956 210.176V221.408ZM44.4799 210.624L42.0159 210.208V208.224H52.2559V210.208L49.1839 210.624V229.728L56.0319 229.44L58.0479 223.456L60.6399 223.808L59.6479 232H41.9519V230.08L44.4799 229.76V210.624ZM69.8141 208.096H74.7101L82.1021 229.76L83.9581 230.08V232H74.5181V230.08L76.9181 229.76L75.6701 225.6H67.3821L66.1341 229.792L68.7261 230.08V232H60.5661L60.5341 230.08L62.4541 229.76L69.8141 208.096ZM72.0221 213.504L71.4461 211.008L70.8381 213.536L67.9901 223.36H75.0301L72.0221 213.504ZM92.5709 210.336L87.9949 210.496L86.7469 217.472H84.0589L84.6029 208.224H105.243L105.627 217.472H103.099L101.851 210.496L97.3389 210.336V229.76L101.819 230.08V232H88.4749V230.08L92.5709 229.76V210.336ZM110.52 210.624L107.8 210.208V208.224H118.04V210.208L115.224 210.624V229.76L118.04 230.112V232H107.8V230.08L110.52 229.76V210.624ZM123.292 210.624L120.764 210.208V208.224H128.028L137.564 222.624L139.356 226.272V210.624L136.604 210.208V208.224H144.54V210.208L142.076 210.624V232H138.204L128.252 216.864L126.012 212.64V229.76L129.244 230.08V232H120.764V230.08L123.292 229.76V210.624ZM157.492 232.256C154.249 232.256 151.839 231.445 150.26 229.824C148.681 228.203 147.892 225.653 147.892 222.176V210.624L145.78 210.208V208.224H155.444V210.208L152.724 210.656V222.592C152.724 227.669 154.527 230.208 158.132 230.208C159.903 230.208 161.215 229.557 162.068 228.256C162.921 226.933 163.348 225.088 163.348 222.72V210.656L160.596 210.208V208.224H168.596V210.208L166.42 210.624V222.464C166.42 225.792 165.609 228.256 163.988 229.856C162.388 231.456 160.223 232.256 157.492 232.256ZM174.073 210.624L170.617 210.208V208.224H180.601L184.409 221.984L185.305 225.728L186.073 221.984L189.849 208.224H199.737V210.208L196.249 210.624L198.809 229.728L201.401 230.08V232H191.193V230.08L194.009 229.76L192.601 215.744L191.993 209.888L190.809 214.816L186.169 231.008H182.777L178.041 215.648L176.409 209.888L175.929 215.744L174.713 229.76L177.945 230.08V232H169.049V230.08L171.737 229.76L174.073 210.624Z" fill="white"/>
</g>
<rect x="0.5" y="196.5" width="219" height="49" rx="19.5" stroke="#00FFE6"/>
<defs>
<clipPath id="clip0_439_1781">
<rect y="196" width="220" height="50" rx="20" fill="white"/>
</clipPath>
</defs>
</svg>
