<svg width="220" height="246" viewBox="0 0 220 246" fill="none" xmlns="http://www.w3.org/2000/svg">
<path d="M209.5 45.7031V111.818C209.5 173.117 167 230.391 110 244.454C52.9996 230.391 10.5001 173.117 10.5 111.818V45.7031L110 1.63965L209.5 45.7031Z" fill="#848484" stroke="#E8E8E8" stroke-width="3"/>
<path d="M77.8157 60L143.849 126.103L155.613 114.326L163.437 122.159L149.731 135.879L167.377 153.543C169.541 155.71 169.541 159.209 167.377 161.376L163.437 165.32C161.273 167.486 157.777 167.486 155.613 165.32L137.745 147.711L124.206 161.431L116.381 153.599L128.145 141.823L62.1119 75.7202V60H77.8157ZM131.586 101.995L157.888 75.6646V60H142.184L115.882 86.3299L131.586 101.995ZM104.118 129.769L88.4143 113.826L76.151 126.103L64.387 114.326L56.5629 122.159L70.269 135.879L52.6231 153.599C50.459 155.765 50.459 159.265 52.6231 161.431L56.5629 165.375C58.727 167.542 62.2229 167.542 64.387 165.375L82.2549 147.711L95.7945 161.431L103.619 153.599L91.8547 141.823L104.118 129.769Z" fill="#E8E8E8"/>
<g clip-path="url(#clip0_439_1769)">
<rect y="196" width="220" height="50" rx="20" fill="#A9A9A9"/>
<path d="M60.5821 232.352C59.4301 232.352 58.3955 232.256 57.4781 232.064C56.5608 231.872 55.5368 231.616 54.4061 231.296C53.6595 231.083 53.1581 230.965 52.9021 230.944L53.1901 225.024H55.7821L56.4861 229.152C56.7635 229.451 57.2541 229.717 57.9581 229.952C58.6835 230.187 59.5048 230.304 60.4221 230.304C61.8515 230.304 62.9181 229.995 63.6221 229.376C64.3475 228.736 64.7101 227.851 64.7101 226.72C64.7101 225.973 64.4968 225.333 64.0701 224.8C63.6435 224.245 63.0568 223.755 62.3101 223.328C61.5635 222.88 60.5395 222.368 59.2381 221.792C57.4675 220.981 55.9955 220.021 54.8221 218.912C53.6701 217.781 53.0941 216.256 53.0941 214.336C53.0941 213.141 53.4035 212.064 54.0221 211.104C54.6408 210.123 55.5581 209.355 56.7741 208.8C58.0115 208.224 59.5155 207.936 61.2861 207.936C62.3315 207.936 63.2488 208.011 64.0381 208.16C64.8488 208.309 65.7235 208.512 66.6621 208.768C67.2168 208.917 67.6328 209.013 67.9101 209.056L67.7181 214.656H65.1581L64.4861 210.72C64.2941 210.528 63.9101 210.347 63.3341 210.176C62.7581 209.984 62.1181 209.888 61.4141 209.888C60.1341 209.888 59.1635 210.187 58.5021 210.784C57.8621 211.36 57.5421 212.139 57.5421 213.12C57.5421 213.909 57.7768 214.592 58.2461 215.168C58.7368 215.744 59.3235 216.235 60.0061 216.64C60.6888 217.024 61.7661 217.579 63.2381 218.304C64.4328 218.88 65.4568 219.445 66.3101 220C67.1635 220.555 67.8995 221.28 68.5181 222.176C69.1368 223.051 69.4461 224.085 69.4461 225.28C69.4461 226.453 69.1475 227.573 68.5501 228.64C67.9741 229.707 67.0141 230.592 65.6701 231.296C64.3475 232 62.6515 232.352 60.5821 232.352ZM74.5514 210.624L71.8314 210.208V208.224H82.0714V210.208L79.2554 210.624V229.76L82.0714 230.112V232H71.8314V230.08L74.5514 229.76V210.624ZM87.3236 210.624L84.8596 210.208V208.224H95.0996V210.208L92.0276 210.624V229.728L98.8756 229.44L100.892 223.456L103.484 223.808L102.492 232H84.7956V230.08L87.3236 229.76V210.624ZM103.346 208.224H113.074V210.208L110.354 210.624L115.122 224.96L116.05 228.192L116.85 224.928L121.33 210.624L118.802 210.208V208.224H126.546V210.208L124.498 210.624L117.138 232.224H113.33L105.266 210.624L103.346 210.208V208.224ZM129.667 210.624L127.107 210.208V208.224H144.163L144.579 213.6H142.339L141.283 210.432L134.371 210.144V218.752L138.819 218.656L139.331 216.032H141.379V223.776H139.331L138.819 221.024L134.371 220.928V229.952L142.115 229.568L143.971 225.472L146.371 226.144L145.539 232H127.139V230.08L129.667 229.76V210.624ZM148.107 230.08L150.635 229.76V210.624L148.235 210.176V208.224H152.875C153.281 208.224 153.729 208.213 154.219 208.192C154.71 208.171 155.083 208.149 155.339 208.128C156.449 208.043 157.366 208 158.091 208C160.289 208 162.049 208.224 163.371 208.672C164.694 209.12 165.654 209.803 166.251 210.72C166.849 211.637 167.147 212.843 167.147 214.336C167.147 215.808 166.753 217.173 165.963 218.432C165.174 219.691 164.033 220.555 162.539 221.024C163.393 221.387 164.15 222.048 164.811 223.008C165.473 223.968 166.177 225.216 166.923 226.752C167.457 227.797 167.862 228.555 168.139 229.024C168.438 229.472 168.726 229.728 169.003 229.792L170.059 230.112V232H164.619C164.278 232 163.915 231.659 163.531 230.976C163.169 230.272 162.689 229.173 162.091 227.68C161.387 225.931 160.779 224.565 160.267 223.584C159.755 222.603 159.211 221.995 158.635 221.76H155.339V229.76L158.283 230.08V232H148.107V230.08ZM158.283 219.808C159.499 219.808 160.449 219.371 161.131 218.496C161.814 217.621 162.155 216.309 162.155 214.56C162.155 213.003 161.814 211.851 161.131 211.104C160.47 210.357 159.318 209.984 157.675 209.984C157.078 209.984 156.566 210.016 156.139 210.08C155.734 210.123 155.467 210.144 155.339 210.144V219.744C155.595 219.787 156.214 219.808 157.195 219.808H158.283Z" fill="white"/>
</g>
<rect x="0.5" y="196.5" width="219" height="49" rx="19.5" stroke="#E8E8E8"/>
<defs>
<clipPath id="clip0_439_1769">
<rect y="196" width="220" height="50" rx="20" fill="white"/>
</clipPath>
</defs>
</svg>
